<?xml version="1.0" encoding="UTF-8" standalone="no"?>
<!-- Created with Inkscape (http://www.inkscape.org/) -->

<svg
   width="347.13333mm"
   height="158.62123mm"
   viewBox="0 0 347.13333 158.62123"
   version="1.1"
   id="svg1"
   xml:space="preserve"
   xmlns="http://www.w3.org/2000/svg"
   xmlns:svg="http://www.w3.org/2000/svg"><defs
     id="defs1" /><g
     id="layer1"
     transform="translate(58.772396,-154.02877)"><path
       style="fill:#000000"
       d="M -58.772396,292.71806 V 272.78611 H 114.79427 288.36093 V 292.71806 312.65 H 114.79427 -58.772396 Z m 28.575,9.34861 v -3.88056 h 5.291666 5.291667 v -2.64583 -2.64584 h -5.291667 -5.291666 v -4.05694 -4.05694 h 7.055555 7.055556 v -2.64584 -2.64583 h -9.701389 -9.701389 v 13.22917 13.22916 h 2.645833 2.645834 z m 56.371705,1.32291 -0.10365,-2.55764 -6.967361,-0.0957 -6.967361,-0.0956 v -1.21783 -1.21784 l 5.203472,-0.0976 5.203472,-0.0976 0.10365,-2.55764 0.103649,-2.55764 h -5.307121 -5.307122 v -4.05694 -4.05694 h 7.071011 7.07101 l -0.103649,-2.55764 -0.10365,-2.55764 H 16.36927 6.6678816 l -0.09249,13.14097 -0.09249,13.14097 h 9.8975264 9.897526 z m 33.88933,1.87763 c 4.265013,-2.17584 5.783656,-7.10497 3.427635,-11.12521 -1.230469,-2.09964 -3.025571,-3.25362 -6.04349,-3.88505 -1.429185,-0.29902 -2.623633,-0.76291 -2.885099,-1.12049 -0.731833,-1.00084 -0.531804,-2.53847 0.459137,-3.52942 0.730259,-0.73025 1.12252,-0.86339 2.028472,-0.68845 1.13425,0.21901 2.357865,1.33236 2.357865,2.14538 0,0.31149 0.726584,0.18237 2.469445,-0.43884 1.358194,-0.48411 2.469444,-1.02569 2.469444,-1.20351 0,-0.55257 -1.104279,-2.54108 -1.893349,-3.40942 -2.132341,-2.34657 -6.391232,-3.05727 -9.273222,-1.54747 -4.69764,2.46097 -5.766049,8.6524 -2.154962,12.48801 1.180429,1.25382 3.512377,2.41115 4.858331,2.41115 2.969546,0 4.58727,2.60656 2.805015,4.51959 -1.339125,1.43738 -4.572368,0.61131 -4.572368,-1.1682 0,-0.64478 0.26747,-0.67928 -2.469445,0.31853 -1.26118,0.45979 -2.339096,1.0647 -2.395368,1.34425 -0.191065,0.94916 2.158442,3.90976 3.773771,4.7553 2.005665,1.04987 5.12631,1.10922 7.038188,0.13385 z m 38.938576,-9.81513 0.09344,-10.49514 4.321525,-0.0991 4.32153,-0.0991 v -2.63498 -2.63497 H 96.273437 84.808159 v 2.64583 2.64584 h 4.409722 4.409723 v 10.58333 10.58333 h 2.640583 2.640584 z m 36.522035,-2.64583 -0.0925,-13.14097 -2.55764,-0.10365 -2.55764,-0.10365 v 13.24462 13.24462 h 2.65013 2.65012 z m 42.35749,0.12804 c 3.91342,-7.15711 7.1153,-13.11023 7.1153,-13.22916 0,-0.11893 -1.30968,-0.21144 -2.91041,-0.20557 l -2.91042,0.0107 -4.57152,8.45295 c -2.51433,4.64912 -4.68447,8.33526 -4.82252,8.19141 -0.13805,-0.14384 -2.2626,-3.95247 -4.72121,-8.46362 l -4.47021,-8.20208 h -2.98712 c -1.64291,0 -2.92132,0.11906 -2.8409,0.26458 0.0804,0.14552 3.1268,5.74146 6.76973,12.43542 8.0085,14.71579 7.42255,13.75833 8.41991,13.75833 0.70693,0 1.75052,-1.71264 7.92937,-13.01293 z m 23.41745,10.90045 1.16035,-2.11248 6.91821,-0.004 6.91821,-0.004 1.12818,2.11667 1.12817,2.11666 h 2.99242 2.99241 l -1.69018,-3.10918 c -8.06583,-14.83748 -13.36103,-24.40033 -13.50825,-24.39519 -0.097,0.003 -2.95451,5.11244 -6.35,11.35345 -3.39549,6.24101 -6.76356,12.42811 -7.48461,13.74911 l -1.311,2.40181 h 2.97287 2.97286 z m 5.98713,-10.93842 c 1.0318,-1.93925 1.95749,-3.52675 2.05708,-3.52778 0.14387,-10e-4 3.33688,5.67152 3.81707,6.78179 0.0647,0.14954 -1.65265,0.27189 -3.81628,0.27189 h -3.93387 z m 57.71854,10.49326 -0.10365,-2.55764 -6.96736,-0.0957 -6.96736,-0.0956 v -10.57588 -10.57587 h -2.64583 -2.64584 v 13.22917 13.22916 h 9.71685 9.71684 z M 106.15121,261.49137 c -7.526627,-1.50055 -13.079395,-6.79932 -15.001713,-14.31552 -0.674182,-2.63602 -0.696893,-4.04778 -0.696893,-43.32001 v -40.59518 l 3.609669,-3.62199 3.609669,-3.622 h 7.855608 7.85561 v 40.05779 c 0,43.67316 -0.11607,41.16444 1.9808,42.81384 0.51511,0.40518 1.07391,0.7367 1.24177,0.7367 0.16986,0 0.3052,-16.85862 0.3052,-38.01782 v -38.01782 l 3.79812,-3.78635 3.79813,-3.78634 h 7.67563 7.67563 l -0.0967,41.1868 -0.0967,41.18681 -0.98439,2.78391 c -1.42059,4.0175 -2.71385,5.73421 -8.95753,11.8905 -6.05515,5.97038 -7.83389,7.14406 -12.49058,8.24171 -2.4059,0.5671 -8.64247,0.67121 -11.08139,0.18497 z m 18.25084,-10.42195 c 4.58486,-1.1126 8.47887,-4.13304 10.64654,-8.25812 2.38547,-4.53956 2.31054,-3.05913 2.31733,-45.78422 l 0.006,-38.54097 h -5.10931 -5.10931 l -0.0942,39.42292 -0.0942,39.42291 -0.85599,1.49446 c -1.56405,2.73067 -5.01274,4.26576 -8.45822,3.76495 -2.89658,-0.42102 -4.83021,-1.741 -6.15415,-4.20107 l -0.75942,-1.41111 -0.0956,-39.24653 -0.0956,-39.24653 h -4.93145 -4.93145 v 39.08422 c 0,42.77943 -0.0887,40.86079 2.08938,45.17561 3.62312,7.17738 12.41319,10.55998 21.62951,8.32348 z m 54.77416,10.42195 c -7.52663,-1.50055 -13.0794,-6.79932 -15.00172,-14.31552 -0.66939,-2.6173 -0.69689,-4.01505 -0.69689,-35.42029 0,-31.40525 0.0275,-32.803 0.69689,-35.4203 1.22012,-4.7706 2.38971,-6.49678 8.63907,-12.75017 4.57682,-4.57978 6.12866,-5.90452 8.12654,-6.93731 7.42804,-3.83987 16.86168,-3.42588 23.57576,1.03461 2.75413,1.82971 4.83465,4.26304 6.29372,7.361 1.65775,3.51983 2.04396,6.20583 2.05078,14.26263 l 0.006,7.23796 -3.79812,3.78635 -3.79813,3.78634 h -7.66715 -7.66716 v -7.07307 c 0,-5.52008 -0.1134,-7.29238 -0.51649,-8.07187 -0.67887,-1.31278 -2.66828,-2.97807 -3.07355,-2.5728 -0.17966,0.17967 -0.27105,12.96167 -0.2139,29.91779 0.092,27.28564 0.14757,29.69147 0.71009,30.71949 0.60535,1.10631 2.20228,2.58879 2.78865,2.58879 0.16786,0 0.3052,-2.26489 0.3052,-5.0331 v -5.0331 l 3.79812,-3.78634 3.79813,-3.78635 h 7.66715 7.66716 l -0.006,7.14375 c -0.007,8.21739 -0.39372,10.68322 -2.30805,14.71835 -1.12093,2.36278 -1.9292,3.3227 -7.32223,8.69609 -6.58352,6.55957 -8.16761,7.62952 -12.97248,8.7621 -2.4059,0.5671 -8.64247,0.67121 -11.08139,0.18497 z m 18.30734,-10.43643 c 2.90977,-0.70718 5.35034,-2.10443 7.66599,-4.38886 2.06142,-2.03363 3.07616,-3.69956 4.27845,-7.02411 0.58144,-1.60781 0.73871,-3.13818 0.88088,-8.57183 l 0.17307,-6.61458 h -5.12971 -5.12971 l -0.11621,6.43819 c -0.10935,6.05801 -0.16676,6.52644 -0.9722,7.93265 -1.56405,2.73067 -5.01274,4.26576 -8.45822,3.76495 -2.89658,-0.42102 -4.83021,-1.741 -6.15415,-4.20107 l -0.75942,-1.41111 V 204.17083 171.3625 l 0.88195,-1.57183 c 0.48507,-0.86451 1.56663,-2.05256 2.40348,-2.6401 1.29619,-0.91005 1.91332,-1.08805 4.1668,-1.20185 3.29211,-0.16624 5.2496,0.51124 6.96576,2.41082 1.71247,1.8955 1.98196,3.22567 1.98421,9.79394 l 0.002,5.73263 h 5.11528 5.11527 l -0.006,-5.37986 c -0.01,-8.70402 -1.35848,-13.03043 -5.24799,-16.83631 -3.46826,-3.39369 -7.63519,-4.94771 -13.26672,-4.94771 -5.47667,0 -9.38171,1.45786 -12.90379,4.81736 -1.10316,1.05223 -2.49584,2.83265 -3.09484,3.95649 -2.23982,4.20234 -2.16942,2.94139 -2.16942,38.86123 0,35.84799 -0.0996,34.0508 2.13289,38.47439 3.58739,7.10819 12.42069,10.46446 21.6425,8.22324 z M -41.839063,218.9875 v -41.09861 h -8.466667 -8.466666 v -7.31411 -7.31412 l 3.609669,-3.62199 3.609669,-3.622 h 24.965331 24.9653306 v 7.12611 7.12611 l -3.81,3.81 -3.81,3.81 h -4.8330556 -4.833055 v 37.31227 37.31226 l -3.798122,3.78635 -3.798122,3.78634 h -7.667156 -7.667156 z m 20.461111,-10.22428 v -41.09234 l 8.554861,-0.0945 8.5548606,-0.0945 0.09873,-4.49792 0.09873,-4.49791 H -26.30631 -48.54185 v 4.58611 4.58611 h 8.466667 8.466667 v 41.0986 41.09862 h 5.115277 5.115278 z m 38.1,3.07451 v -48.24837 l 3.818383,-3.80654 3.818383,-3.80655 13.026756,0.11879 c 14.994224,0.13674 15.557189,0.23214 20.371592,3.45221 4.013281,2.68424 6.374937,6.13119 7.669954,11.19466 0.61678,2.41159 0.68331,3.9565 0.678607,15.75825 -0.0058,14.45923 -0.147732,15.74497 -2.198495,19.91066 -1.05037,2.1336 -3.792231,5.32112 -5.968662,6.93878 l -0.940426,0.69899 5.791121,18.85198 c 3.185116,10.36858 5.79112,19.10267 5.79112,19.40908 0,0.30641 -1.632975,2.18452 -3.628835,4.17359 l -3.628835,3.61648 -8.073863,-0.095 -8.073863,-0.095 -2.672996,-8.74376 -2.672996,-8.74376 -0.09692,5.03959 -0.09692,5.0396 -3.777617,3.79236 -3.777618,3.79236 h -7.678933 -7.678933 z m 20.461111,20.20255 V 214.225 h 3.335045 3.335046 l 1.004102,3.26319 c 0.552257,1.79476 2.980549,9.80959 5.396205,17.81073 l 4.392102,14.54753 5.325022,0.005 5.325022,0.005 -5.706803,-18.60903 -5.706803,-18.60903 1.131743,-0.60332 c 1.833424,-0.97739 4.836556,-3.93915 6.063545,-5.98002 2.28276,-3.79694 2.564749,-5.96421 2.558893,-19.66684 -0.0057,-13.25486 -0.184463,-14.9209 -1.982328,-18.47205 -1.989816,-3.93029 -5.021498,-6.57299 -9.520333,-8.29883 -2.411174,-0.92497 -2.500318,-0.9318 -13.80393,-1.05704 l -11.377083,-0.12606 v 45.71066 45.71067 h 5.115277 5.115278 z m 0,-45.68472 v -18.69722 l 4.850695,0.002 c 5.577379,0.002 6.796807,0.2574 8.688616,1.8179 2.644675,2.18153 2.671982,2.35364 2.680719,16.89628 l 0.0077,12.89531 -0.921082,1.84837 c -0.719216,1.44328 -1.318412,2.07626 -2.734028,2.88818 -1.788841,1.02598 -1.884475,1.03985 -7.192807,1.04312 l -5.379861,0.003 z m 6.285702,5.90902 c -0.09754,-8.9789 -0.191337,-10.46357 -0.722403,-11.43412 -0.605349,-1.10631 -2.202283,-2.58879 -2.788652,-2.58879 -0.167861,0 -0.305202,5.47688 -0.305202,12.17083 v 12.17083 h 1.964174 1.964174 z m 190.917069,19.57315 v -48.24837 l 3.79812,-3.78635 3.79813,-3.78634 h 7.66148 7.66149 l 0.0939,9.61319 0.0939,9.6132 2.60092,-5.82083 2.60092,-5.82084 3.74306,-3.79236 3.74306,-3.79236 h 8.42564 c 7.85883,0 8.41334,0.0415 8.24293,0.61736 -0.10049,0.33955 -3.85743,8.69943 -8.34877,18.57752 l -8.16607,17.96016 8.88221,29.61353 8.8822,29.61352 -3.83176,3.84368 -3.83175,3.84367 h -8.01513 -8.01513 l -0.32218,-1.14653 c -0.1772,-0.63059 -1.73247,-5.90902 -3.45617,-11.72986 l -3.13405,-10.58333 -0.0948,7.9375 -0.0948,7.9375 -3.77978,3.79236 -3.77977,3.79236 h -7.67893 -7.67894 z m 20.46111,23.68364 v -14.33419 l 2.34391,-5.15678 c 1.28915,-2.83624 2.73458,-6.02991 3.21207,-7.09707 l 0.86816,-1.94027 3.13776,10.58333 c 1.72576,5.82083 4.58948,15.46489 6.36382,21.43125 l 3.22606,10.84792 h 5.27902 5.27903 l -0.20536,-0.79375 c -0.11295,-0.43657 -3.9282,-13.22806 -8.47833,-28.42554 l -8.27297,-27.63178 7.73453,-17.10669 c 4.25399,-9.40868 7.73453,-17.17935 7.73453,-17.26815 0,-0.0888 -2.48517,-0.11773 -5.5226,-0.0643 l -5.52259,0.0971 -8.50033,18.83787 -8.50032,18.83787 -0.0913,-18.92606 -0.0913,-18.92607 h -5.11221 -5.11221 v 45.68472 45.68473 h 5.11528 5.11527 z"
       id="path1" /></g></svg>
