<?xml version="1.0" encoding="UTF-8" standalone="no"?>
<!-- Created with Inkscape (http://www.inkscape.org/) -->

<svg
   version="1.1"
   id="svg1"
   width="902"
   height="615.84412"
   viewBox="0 0 902 615.84412"
   sodipodi:docname="logo.svg"
   inkscape:version="1.4.2 (ebf0e940, 2025-05-08)"
   xmlns:inkscape="http://www.inkscape.org/namespaces/inkscape"
   xmlns:sodipodi="http://sodipodi.sourceforge.net/DTD/sodipodi-0.dtd"
   xmlns="http://www.w3.org/2000/svg"
   xmlns:svg="http://www.w3.org/2000/svg">
  <sodipodi:namedview
     id="namedview1"
     pagecolor="#ffffff"
     bordercolor="#000000"
     borderopacity="0.25"
     inkscape:showpageshadow="2"
     inkscape:pageopacity="0.0"
     inkscape:pagecheckerboard="0"
     inkscape:deskcolor="#d1d1d1"
     inkscape:zoom="0.60984977"
     inkscape:cx="429.614"
     inkscape:cy="266.45907"
     inkscape:window-width="1472"
     inkscape:window-height="892"
     inkscape:window-x="0"
     inkscape:window-y="64"
     inkscape:window-maximized="0"
     inkscape:current-layer="g1" />
  <defs
     id="defs1" />
  <g
     id="g1"
     transform="translate(-49,-191.76672)">
    <path
       style="fill:#d47b17;fill-opacity:1"
       d="m 362.68943,788.3561 c -1.12444,-1.12444 11.77986,-24.19099 29.28998,-52.3561 2.56449,-4.125 4.97319,-8.175 5.35266,-9 0.37948,-0.825 1.4725,-2.70944 2.42894,-4.18764 14.76328,-22.81693 33.94481,-60.90882 33.03919,-65.6113 -0.24703,-1.28273 -1.18928,-0.84435 -4.37886,2.03725 -7.82182,7.06654 -27.9587,22.87798 -32.07456,25.18488 -11.43105,6.40699 -24.9744,8.40228 -30.47004,4.48904 -7.8249,-5.57182 -10.93589,-20.30321 -9.12126,-43.19171 3.63673,-45.87117 22.98346,-93.67938 52.08893,-128.71833 8.91251,-10.72943 26.12095,-27.17531 34.85212,-33.30769 19.97399,-14.02886 40.3151,-20.66352 50.98837,-16.63088 C 504.07249,470.6105 516,491.03 516,503.55437 c 0,12.71019 -10.04226,31.35452 -24.89815,46.22559 -18.47129,18.49015 -24.8867,22.22173 -38.10185,22.16224 -9.81909,-0.0442 -15.29723,-2.02717 -15.82351,-5.72778 -0.66562,-4.68042 8.11305,-8.50777 18.5459,-8.08568 6.33519,0.2563 5.9363,0.59089 20.41988,-17.12874 12.13124,-14.84172 15.62638,-20.70436 18.04476,-30.26774 4.24673,-16.79353 -0.35867,-33.54823 -9.70334,-35.3013 -16.42062,-3.08052 -45.03946,19.30121 -68.51995,53.58689 -5.00754,7.3119 -4.96836,7.24878 -11.78396,18.98215 -20.01651,34.4593 -32.88308,79.23808 -30.77852,107.11669 1.41592,18.75642 6.79595,26.52955 15.78489,22.8062 3.99572,-1.65508 18.8871,-13.95502 34.20761,-28.25472 10.25265,-9.56951 14.08522,-13.69234 23.31495,-25.08067 0.8525,-1.05188 2.96752,-4.65188 4.70004,-8 2.84323,-5.49456 3.6829,-6.30599 8.62065,-8.33066 6.99235,-2.86714 14.32905,-2.74625 14.75673,0.24316 0.27878,1.94863 -5.26516,13.9034 -12.05733,26 -1.85292,3.3 -6.55783,12.09552 -10.45533,19.5456 -12.31928,23.54828 -22.54788,41.75634 -36.76981,65.4544 -7.59165,12.65 -14.92289,25.025 -16.29164,27.5 -1.36875,2.475 -4.19344,7.425 -6.27709,11 -2.08364,3.575 -5.06366,8.83869 -6.62226,11.69708 -2.07532,3.80602 -5.2381,7.08489 -11.81632,12.25 -8.69319,6.82575 -10.44128,7.77465 -11.80692,6.40902 z M 649.3817,773.4693 c -7.7685,-3.40694 -10.91365,-11.20857 -10.06613,-24.9693 1.4191,-23.04089 18.79408,-47.36077 48.22437,-67.5 L 698.5,673.5 702.68814,661 c 4.2076,-12.55808 7.53457,-25.11063 6.8396,-25.8056 -0.20515,-0.20515 -3.49627,1.45109 -7.3136,3.68054 -7.94333,4.63915 -13.08776,6.06595 -21.99626,6.10061 -9.90733,0.0386 -15.56363,-3.36373 -18.07936,-10.87477 -3.8779,-11.57803 3.09757,-34.90858 14.53974,-48.63044 2.93716,-3.52235 8.55101,-8.39814 13.50035,-11.72545 16.45007,-11.05892 26.72475,-13.90645 35.26346,-9.77293 4.14894,2.00847 4.824,2.08373 6.84027,0.76261 3.208,-2.10196 12.42502,-3.8801 16.32252,-3.14892 1.97697,0.37088 3.56346,1.36933 3.90983,2.46062 0.32669,1.02932 -3.16334,13.17981 -7.94062,27.64511 -11.7292,35.51532 -20.63959,63.1969 -21.55331,66.95888 l -0.76515,3.15027 8.12916,-2.81671 c 12.16995,-4.21681 25.85453,-7.83928 42.95736,-11.37133 0.46318,-0.0956 1.01051,-5.33509 1.21629,-11.6432 0.20579,-6.30811 0.9975,-14.32757 1.75937,-17.82103 l 1.38522,-6.35174 -6.91646,-4.43334 c -5.4216,-3.47516 -6.84839,-4.8878 -6.6015,-6.53609 C 764.67821,597.53454 770.51289,595 777.59937,595 h 6.13057 l 3.2594,-7.47556 c 7.86067,-18.02872 23.77722,-37.31741 35.57223,-43.1087 5.15113,-2.52918 7.06964,-2.91574 14.47083,-2.91574 10.02652,0 16.6327,2.31746 17.60072,6.17438 1.72219,6.86172 -4.99644,22.91771 -15.50055,37.04279 -9.37757,12.61021 -16.10912,17.64948 -34.35285,25.71669 -7.44603,3.29256 -8.86714,4.30976 -9.72529,6.96108 -1.66266,5.13697 -4.19682,21.46171 -3.86473,24.89607 0.30026,3.10514 0.47211,3.21679 5.3103,3.45001 2.75,0.13256 7.475,0.53894 10.5,0.90307 4.52892,0.54516 5.0586,0.79398 3,1.4093 -1.375,0.41099 -5.425,0.799 -9,0.86224 -8.06403,0.14267 -9.5008,0.93544 -8.56694,4.72704 1.07143,4.3501 5.35829,11.17451 8.18143,13.02431 3.34027,2.18862 10.27764,1.86521 16.38958,-0.76408 5.62762,-2.42093 12.07017,-8.86809 21.441,-21.45631 3.66298,-4.92062 7.5069,-10.07159 8.54204,-11.44659 12.57473,-16.70322 19.46373,-28.78403 28.71177,-50.35 3.97414,-9.26751 8.21153,-17.70501 9.41643,-18.75 2.82112,-2.44675 10.14876,-2.51661 14.88469,-0.14191 4.63739,2.32528 4.44714,4.07727 -1.90493,17.54262 C 895.29278,587.2411 893,592.33668 893,592.62423 c 0,0.28754 -2.25663,5.28309 -5.01474,11.10121 -2.75811,5.81812 -4.81877,10.77438 -4.57924,11.01391 0.23953,0.23953 4.40866,-3.07994 9.26474,-7.3766 13.39113,-11.84846 16.86555,-15.05959 27.25927,-25.19353 10.00287,-9.75285 14.74668,-13.46258 21.78013,-17.03237 4.64755,-2.35884 9.28984,-2.81434 9.28984,-0.91152 0,0.67394 -3.27975,4.38644 -7.28832,8.25 -7.42388,7.15531 -18.81635,19.87412 -28.71168,32.05434 -5.74159,7.06735 -12.00379,14.48886 -23.60956,27.98032 -5.68928,6.61367 -13.08977,15.62185 -20.09894,24.46525 -0.66468,0.83862 -4.03968,5.32978 -7.5,9.98037 l -6.2915,8.45561 -7.35568,1.21684 c -4.04562,0.66927 -8.6154,1.73864 -10.15505,2.37639 -1.53966,0.63774 -3.85461,1.01014 -5.14433,0.82754 -1.99558,-0.28253 -2.35805,-0.92793 -2.43294,-4.33199 -0.0863,-3.92494 -0.15201,-3.99477 -3.5,-3.72111 -1.8766,0.15339 -7.237,1.72839 -11.912,3.5 -7.44319,2.82063 -9.7031,3.22111 -18.17667,3.22111 -8.23203,0 -10.09817,-0.31075 -12.5,-2.0815 -3.87597,-2.85756 -9.11006,-11.81351 -9.87146,-16.89087 -1.02117,-6.80965 -1.40731,-7.07601 -8.12049,-5.6014 -8.15542,1.79141 -27.66004,8.29552 -35.37103,11.79501 -11.6652,5.29402 -14.25469,7.42007 -16.31778,13.39733 -11.65172,33.75792 -33.84448,81.75001 -41.20866,89.11418 -5.96862,5.96863 -18.59564,8.50668 -26.05221,5.23655 z M 666.16534,755.25 c 8.72324,-14.50492 13.35453,-25.03599 20.71458,-47.10276 5.9971,-17.98042 5.69778,-18.41611 -4.92671,-7.1712 -4.92426,5.21182 -8.95321,9.79218 -8.95321,10.17857 0,0.38639 -0.5625,1.30932 -1.25,2.05095 -7.43998,8.02575 -15.80859,27.99123 -16.08695,38.37955 -0.17641,6.58357 1.62586,11.41489 4.25818,11.41489 0.90724,0 3.57339,-3.30915 6.24411,-7.75 z m 26.91305,-126.96942 c 6.43044,-5.41085 21.36375,-28.32634 29.43577,-45.16982 l 3.30942,-6.9056 -2.80015,-2.68271 c -6.97244,-6.68003 -14.94273,-4.72162 -26.1014,6.41348 -12.47384,12.44747 -19.76771,29.75145 -17.81126,42.25539 1.37849,8.81009 7.54119,11.49675 13.96762,6.08926 z M 809.66615,593.16966 C 823.17361,582.49262 839,560.48244 839,552.37427 c 0,-6.41094 -19.26729,11.80452 -26.47733,25.03188 C 806.74724,588.00162 802.7978,597 803.92281,597 c 0.49368,0 3.07818,-1.72365 5.74334,-3.83034 z M 520.00111,668.7621 c -6.04425,-3.19293 -9.649,-18.04378 -8.62195,-35.5207 1.43402,-24.40217 11.57815,-49.67353 25.91287,-64.55488 4.57188,-4.74622 5.94079,-5.55523 11.20797,-6.62379 9.93755,-2.01604 13.87581,0.75821 9.62888,6.7829 -7.48622,10.61993 -19.84343,36.02488 -24.15236,49.65437 -3.59338,11.36617 -4.02189,37.5 -0.61486,37.5 2.50773,0 12.81742,-10.41707 20.10727,-20.3167 4.12431,-5.60082 8.36827,-11.3339 9.43104,-12.74019 1.06276,-1.40629 5.99499,-8.46485 10.96051,-15.68568 10.30106,-14.97976 21.37012,-30.01696 26.13543,-35.50472 3.76232,-4.33271 9.16019,-6.32121 14.46019,-5.32692 4.49506,0.84327 5.32049,2.72246 3.17349,7.22478 -1.40866,2.954 -0.057,2.02638 9.10813,-6.25062 11.275,-10.18245 20.07779,-15.39772 25.99204,-15.39916 1.77637,-4.3e-4 5.09319,0.74481 7.37071,1.65609 l 4.14095,1.65688 -0.56984,4.59312 c -0.31341,2.52622 -3.31211,13.36812 -6.66379,24.09312 -3.35167,10.725 -7.68148,24.62219 -9.62179,30.88264 -1.94031,6.26046 -4.60711,16.47936 -5.92623,22.70867 C 637.68063,655.43767 635.42948,659 627.93089,659 c -4.57685,0 -10.32027,-5.22989 -12.03739,-10.96112 -1.34057,-4.47444 -1.96773,-2.42659 8.12756,-26.53888 7.27424,-17.37432 16.32547,-44.52908 15.76071,-47.284 -0.47668,-2.32521 -24.76528,21.97774 -30.76582,30.784 -14.17187,20.79831 -16.06138,24.26466 -23.98434,44 -2.31844,5.775 -4.95167,11.74706 -5.85163,13.27124 -2.11967,3.58991 -8.20915,6.48607 -15.40946,7.32875 -4.7332,0.55395 -5.83592,0.39315 -6.34164,-0.92473 -0.62826,-1.63722 1.7341,-9.32193 5.58725,-18.17526 4.43695,-10.19471 4.35295,-10.22078 -4.69598,-1.45747 -4.85108,4.69796 -10.62015,9.92734 -12.82015,11.62084 -9.64457,7.42413 -20.34338,10.82219 -25.49889,8.09873 z M 172,648.73186 c -1.375,-0.68127 -3.54171,-3.26213 -4.81491,-5.73526 -2.08586,-4.05168 -2.27572,-5.53554 -1.91889,-14.9966 0.34625,-9.18075 0.8725,-11.75643 4.18842,-20.5 5.03967,-13.28884 13.28561,-30.58609 18.11535,-38 2.14976,-3.3 4.36346,-6.72801 4.91934,-7.61781 0.55588,-0.88979 5.68907,-7.18979 11.40709,-14 14.63636,-17.43201 16.74717,-20.87142 18.6459,-30.38219 3.47471,-17.40486 14.59346,-33.87078 27.96872,-41.41931 7.08394,-3.99793 9.87043,-3.81187 10.30373,0.688 0.49758,5.16735 -3.69693,13.46154 -20.45663,40.45076 l -7.27751,11.71944 0.91112,7.98857 c 0.96297,8.44326 3.86114,16.90885 9.86088,28.80376 l 3.64739,7.23122 10.90968,-10.73122 c 18.73726,-18.43074 19.9395,-19.59311 26.09668,-25.23122 3.3035,-3.025 8.64527,-7.75 11.8706,-10.5 3.22533,-2.75 7.27247,-6.26728 8.99364,-7.81617 C 324.35369,501.6008 345,488.66562 345,493.85549 c 0,0.50505 -20.72298,21.32198 -46.05107,46.25986 -50.87761,50.09378 -47.11876,45.27264 -42.68252,54.745 1.1951,2.55181 3.85823,7.53041 5.91806,11.06355 5.13045,8.80007 5.77967,13.75521 2.52894,19.30215 -1.37837,2.35201 -3.45276,5.13308 -4.60977,6.18015 -1.95976,1.77357 -2.22826,1.791 -3.9257,0.25483 -1.00214,-0.90692 -5.1213,-8.06416 -9.1537,-15.90499 -4.0324,-7.84082 -7.51605,-14.47212 -7.74144,-14.73621 -0.22539,-0.26409 -8.59373,7.90187 -18.5963,18.14658 -10.80106,11.06252 -20.50803,20.07639 -23.90322,22.19646 -13.52755,8.44705 -19.20204,10.13429 -24.78328,7.36899 z m 18.69351,-18.24827 c 6.56358,-2.74244 25.93862,-21.29263 38.04093,-36.42143 l 5.94991,-7.43784 -4.73556,-11.56216 c -2.60456,-6.35919 -5.96157,-15.49966 -7.46003,-20.31216 -1.49846,-4.8125 -2.90401,-8.75 -3.12344,-8.75 -0.97953,0 -10.08607,10.2065 -15.52773,17.4033 -10.54366,13.94436 -24.86581,45.99575 -25.0671,56.09737 -0.12313,6.17903 3.21322,11.35784 8.01163,12.43594 0.15516,0.0349 1.91529,-0.61899 3.91139,-1.45302 z M 52.975249,550.4349 c -1.872223,-4.92432 -0.422133,-16.41659 2.43151,-19.27023 1.51933,-1.51933 1.818047,-1.42053 4.07552,1.34792 l 2.436022,2.98741 2.575478,-3 c 1.416513,-1.65 3.797395,-4.74802 5.290849,-6.88448 1.493455,-2.13647 3.390372,-4.84176 4.215372,-6.01177 25.480891,-36.13667 48.6369,-73.03943 67.42805,-107.4572 6.94492,-12.72029 17.83105,-35.22079 17.29822,-35.75362 -0.16521,-0.16521 -8.83371,8.17111 -19.26333,18.52514 -19.0877,18.94938 -27.17832,25.29136 -39.45762,30.92961 -4.527475,2.07886 -7.07987,2.53436 -14.500005,2.58765 -7.929525,0.0569 -9.69194,-0.27239 -14.752976,-2.75684 C 57.954632,419.39612 49,407.68492 49,397.22997 c 0,-6.16435 3.61489,-17.80322 8.302005,-26.72997 3.804861,-7.24648 15.676805,-26.3654 19.486538,-31.38168 1.511409,-1.99008 4.456005,-6.16794 6.543545,-9.28415 2.087541,-3.11621 8.776788,-11.89121 14.864995,-19.5 38.507767,-48.12544 88.151837,-95.31362 118.777197,-112.9013 7.13579,-4.09797 9.46589,-4.92979 14.7523,-5.2664 l 6.278,-0.39975 1.63578,3.86664 c 3.09786,7.32267 4.33593,13.89052 4.34777,23.06437 0.0211,16.33384 -6.74138,30.6285 -26.98813,57.04816 -18.28335,23.85766 -23.47344,28.33357 -32.93956,28.40689 -5.04621,0.0391 -9.42258,-1.68548 -12.27466,-4.837 -4.31379,-4.76669 -6.0725,-14.39763 -3.61434,-19.7927 1.90422,-4.17932 8.19491,-4.70983 9.43602,-0.79576 0.30915,0.97497 1.26729,3.46018 2.12919,5.52268 1.42693,3.41459 1.91219,3.75 5.42534,3.75 3.52722,0 4.65864,-0.79361 13.1873,-9.25 15.41686,-15.28621 27.19731,-32.41371 32.6409,-47.45631 1.91286,-5.28592 2.1862,-7.69354 1.84314,-16.23474 -0.22672,-5.64471 -0.90254,-10.52816 -1.54603,-11.17165 -0.85766,-0.85766 -2.97065,-0.0897 -8.45858,3.07436 -6.94431,4.00369 -25.01323,16.74681 -29.34813,20.69778 -1.11067,1.01231 -5.16067,4.5391 -9,7.83732 -24.519,21.06334 -68.35946,68.35689 -86.747246,93.57987 C 87.981215,342.45388 84.946621,346.78451 79.568137,355 c -7.007078,10.70312 -13.874555,23.16864 -16.668926,30.25663 -1.583214,4.01587 -1.709773,5.52825 -0.812663,9.71133 0.89302,4.164 2.013176,5.83476 7.019271,10.46952 14.29099,13.23094 23.538366,14.47518 37.874551,5.09604 7.4578,-4.8791 36.63385,-32.76894 51.21762,-48.9597 7.24429,-8.04254 10.92413,-13.12124 13.94302,-19.24332 4.20391,-8.5252 7.11613,-11.36506 13.21632,-12.8879 5.19249,-1.29624 5.16439,1.81105 -0.12316,13.6189 -1.09315,2.44117 -2.96239,6.6885 -4.15384,9.4385 -1.19146,2.75 -3.15086,7.25 -4.35421,10 -4.65171,10.63044 -20.93239,42.90929 -29.79272,59.06845 -18.92657,34.5176 -40.97387,69.30894 -59.461624,93.8323 -4.934477,6.54541 -11.705946,15.99541 -15.047709,21 C 62.6691,551.00968 55.233685,556.37504 52.975249,550.4349 Z M 549.31256,539.27747 c -4.13421,-2.84858 -5.74526,-17.84703 -3.78364,-35.22474 3.75227,-33.24079 13.92019,-57.95146 27.24646,-66.21595 1.80147,-1.1172 3.91863,-1.78444 4.70482,-1.48275 2.39016,0.91719 5.34053,7.93924 6.07929,14.46906 l 0.6987,6.17561 7.00165,-6.60501 c 10.39701,-9.80801 16.22607,-11.63506 21.21236,-6.64876 2.66956,2.66956 2.73259,2.99221 2.29527,11.75 -0.59213,11.85798 -4.17955,20.03065 -17.76747,40.4769 -8.03088,12.08437 -29.17209,37.5904 -34.01724,41.04044 -3.09886,2.20659 -11.68935,3.63006 -13.6702,2.2652 z M 559.33054,523.75 c 1.93877,-2.8875 7.8789,-10.425 13.2003,-16.75 16.62957,-19.76584 28.95343,-40.47171 28.26471,-47.48877 L 600.5,456.5 l -4.03384,4 c -5.87656,5.82726 -8.83534,10.12394 -18.17643,26.39545 -4.60713,8.02528 -8.75874,14.97356 -9.2258,15.44062 C 567.55268,503.84732 564,501.08682 564,498.40131 c 0,-1.39058 1.78798,-7.78724 3.97328,-14.21482 C 573.10658,469.08806 574.66556,453 570.99534,453 c -1.23719,0 -6.11168,9.7321 -8.77393,17.51746 -2.50264,7.31862 -5.61807,23.59174 -7.80217,40.75391 C 552.86235,523.50496 553.01813,529 554.92181,529 c 0.48605,0 2.46997,-2.3625 4.40873,-5.25 z M 214.17301,423.39372 c -6.09823,-7.39821 -7.32722,-21.26081 -3.20992,-36.20687 l 2.29009,-8.31315 -2.62659,-2.74157 C 208.67691,374.0971 208,372.34932 208,369.35027 c 0,-5.25655 2.02249,-7.01242 9.41191,-8.1712 3.37502,-0.52925 6.21972,-1.55634 6.70315,-2.42019 0.46192,-0.82541 2.89884,-4.2398 5.41538,-7.58754 10.599,-14.09977 28.23936,-24.56271 38.24702,-22.68527 l 3.45901,0.64892 -0.43544,5.25078 c -0.55442,6.68556 -5.1256,14.36789 -14.75934,24.80455 -7.80731,8.45801 -15.95437,14.28239 -25.00831,17.87861 -3.84658,1.52786 -6.1194,3.05971 -6.51205,4.38904 -1.0788,3.65236 -1.74607,24.97985 -0.85354,27.2813 l 0.86842,2.23928 4.29596,-2.12548 c 2.81239,-1.39146 13.5117,-11.42603 30.9819,-29.05702 29.47287,-29.74414 41.96447,-40.88968 49.89947,-44.52244 10.12561,-4.63566 12.51762,-1.5578 7.46779,9.60898 -3.79965,8.40222 -4.72361,11.46742 -3.31149,10.98572 0.59385,-0.20257 5.72536,-4.92726 11.40335,-10.49931 10.49967,-10.30376 16.88512,-14.49575 24.78404,-16.27052 5.33896,-1.19959 8.68369,0.0211 9.55347,3.48657 0.9823,3.91378 -1.3135,15.13571 -5.78985,28.30096 -5.39267,15.86025 -6.78876,22.28957 -6.80607,31.34375 -0.0167,8.74908 2.16461,15.77024 4.89952,15.77024 1.77806,0 7.20087,-3.64189 9.98542,-6.70609 C 367.75367,394.85207 384,371.81063 384,369.95008 c 0,-0.46788 0.58949,-1.21056 1.30998,-1.65039 1.18505,-0.72342 3.6949,-4.37523 13.60809,-19.79969 3.98356,-6.19822 14.2898,-26.62546 13.72063,-27.19463 -0.22994,-0.22995 -6.65522,1.60997 -14.27839,4.08871 -33.70264,10.95867 -40.86546,11.28481 -35.87454,1.63343 1.9017,-3.67748 7.15083,-5.66023 31.96825,-12.07536 10.47529,-2.70778 20.39598,-5.54387 22.04598,-6.30242 2.36187,-1.08581 5.44446,-5.5909 14.49205,-21.17958 6.32063,-10.89022 12.76774,-21.07609 14.32692,-22.63528 3.36502,-3.36502 9.1822,-3.98999 10.0978,-1.08487 0.84499,2.68107 -0.26068,5.44685 -9.23523,23.10139 -4.57165,8.99326 -8.14577,16.51771 -7.94248,16.721 0.50366,0.50367 12.67435,-2.56439 27.76094,-6.99815 13.70939,-4.02901 31.27972,-7.97365 40.2536,-9.03718 4.92219,-0.58334 5.84966,-0.43155 6.41835,1.05043 1.25413,3.26821 -7.3164,7.70364 -22.17195,11.47447 -1.65,0.41882 -6.825,1.90241 -11.5,3.29686 -4.675,1.39446 -13.675,3.88558 -20,5.53584 -6.325,1.65025 -14.97813,3.97315 -19.22918,5.16199 l -7.72918,2.16153 -3.15641,6.64091 c -7.12985,15.00079 -9.32419,20.43441 -14.99915,37.14091 -10.38673,30.57744 -11.84281,38.81312 -7.57163,42.82569 1.27295,1.19587 3.46881,2.17431 4.87968,2.17431 3.58004,0 11.91223,-6.71789 27.50154,-22.17332 14.89059,-14.7627 16.92296,-15.61668 16.07126,-6.75292 -0.72529,7.54824 -5.55507,13.6761 -20.86374,26.47113 -5.3392,4.46253 -12.35828,8.7828 -18.23135,11.22147 -8.1414,3.38054 -18.53122,3.68736 -23.67184,0.69904 -3.53459,-2.05471 -7.38992,-8.29743 -8.49304,-13.75228 -0.68908,-3.40747 -0.85729,-3.30891 -12.44337,7.29122 -9.62015,8.80149 -18.74487,13.98998 -24.56359,13.96732 -11.3459,-0.0442 -19.47666,-9.46719 -19.49442,-22.59271 -0.007,-5.08044 5.23476,-22.20793 11.2863,-36.87895 2.49552,-6.05 4.86243,-12.74938 5.25981,-14.88752 l 0.72249,-3.88751 -3.21346,1.88751 c -9.94583,5.84198 -41.97518,42.15795 -51.95265,58.90569 -5.52588,9.27551 -9.06378,13.43649 -12.72525,14.96634 -9.4887,3.96464 -10.91801,-0.12264 -3.70729,-10.60144 9.72779,-14.13669 27.97489,-51.06488 24.58334,-49.75138 -2.7991,1.08405 -20.48141,17.80047 -36.41364,34.42456 C 239.8604,415.45234 225.45412,427 219.12246,427 c -1.08727,0 -3.31452,-1.62282 -4.94945,-3.60628 z M 251.40019,345.25 c 0.8333,-1.93958 0.26004,-1.53614 -3.45402,2.43081 l -3.44617,3.68081 3.18158,-2.43081 c 1.74987,-1.33695 3.42324,-2.99331 3.71861,-3.68081 z m 219.44367,62.28987 c -5.37905,-3.65516 -7.02228,-9.75643 -4.79128,-17.78987 1.43326,-5.16093 4.23084,-5.0851 5.80149,0.15726 1.3942,4.65344 7.17628,10.09274 10.72876,10.09274 6.30938,0 20.60415,-12.88955 25.57527,-23.06115 6.55021,-13.40262 7.76497,-25.32368 5.33594,-52.36409 -2.07655,-23.11654 -2.21335,-22.67811 7.29068,-23.36557 5.3533,-0.38722 5.98254,-0.21334 7.4759,2.06581 3.26286,4.97977 5.07051,18.20267 5.15721,37.725 0.091,20.48754 -0.52572,24.04721 -6.11598,35.301 -6.28622,12.65484 -23.01418,27.52446 -36.17758,32.15855 -6.94898,2.44635 -15.92594,2.03926 -20.28041,-0.91968 z"
       id="path1"
       sodipodi:nodetypes="sssssssssssssssssssssssssssssssssssssssscssssssssssssscsssscssscssssssssssssssssssssssssssssssssscsssssssssssssssssssssssscssssssssssssssssssssssssscsssssssssssssssssssssssssssscsscsssssssssssssssssscsssssssssscsscsssscsssssssscssssssssssssscssssssssssssssssssssssscssssssssscsssssssssssscsssssscssssscsssssssssssssssssssssssssssssssscsssssssssssscsscsssssssssscssssssssssssss" />
  </g>
</svg>
